<svg xmlns="http://www.w3.org/2000/svg" viewBox="0 0 512 512" id="analytics">
  <rect width="497" height="497" x="7.5" y="7.503" fill="#fff" rx="30"></rect>
  <path fill="#676e87" d="M504.5 37.503v60H7.5v-60a29.998 29.998 0 0 1 30-30h437a29.998 29.998 0 0 1 30 30Z"></path>
  <path fill="#dedede" d="M89.994 444.501a7.502 7.502 0 0 1-6.042-11.936l121-165a7.5 7.5 0 0 1 11.531-.682l136.454 146.22 92.553-161.826a7.5 7.5 0 1 1 13.02 7.447l-97.604 170.658a7.5 7.5 0 0 1-11.994 1.394l-137.218-147.04-115.646 157.7a7.494 7.494 0 0 1-6.054 3.065Z"></path>
  <circle cx="210.993" cy="272.032" r="22.5" fill="#dedede"></circle>
  <path fill="#dedede" d="M210.993 249.533a22.454 22.454 0 0 0-7.5 1.285 22.502 22.502 0 0 1 0 42.43 22.5 22.5 0 1 0 7.5-43.715Z"></path>
  <circle cx="90" cy="437" r="22.5" fill="#dedede"></circle>
  <path fill="#dedede" d="M90 414.5a22.454 22.454 0 0 0-7.5 1.285 22.502 22.502 0 0 1 0 42.43A22.5 22.5 0 1 0 90 414.5Z"></path>
  <circle cx="354.358" cy="425.6" r="22.5" fill="#dedede"></circle>
  <path fill="#dedede" d="M354.358 403.1a22.454 22.454 0 0 0-7.5 1.285 22.502 22.502 0 0 1 0 42.43 22.5 22.5 0 1 0 7.5-43.715Z"></path>
  <circle cx="452" cy="255" r="22.5" fill="#dedede"></circle>
  <path fill="#dedede" d="M452 232.5a22.454 22.454 0 0 0-7.5 1.285 22.502 22.502 0 0 1 0 42.43A22.5 22.5 0 1 0 452 232.5Z"></path>
  <circle cx="195.993" cy="272.032" r="22.5" fill="#63ea86"></circle>
  <path fill="#3ce568" d="M195.993 249.533a22.454 22.454 0 0 0-7.5 1.285 22.502 22.502 0 0 1 0 42.43 22.5 22.5 0 1 0 7.5-43.715Z"></path>
  <circle cx="75" cy="437" r="22.5" fill="#f66"></circle>
  <path fill="#ff4e4e" d="M75 414.5a22.454 22.454 0 0 0-7.5 1.285 22.502 22.502 0 0 1 0 42.43A22.5 22.5 0 1 0 75 414.5Z"></path>
  <circle cx="339.358" cy="425.6" r="22.5" fill="#f66"></circle>
  <path fill="#ff4e4e" d="M339.358 403.1a22.454 22.454 0 0 0-7.5 1.285 22.502 22.502 0 0 1 0 42.43 22.5 22.5 0 1 0 7.5-43.715Z"></path>
  <circle cx="437" cy="255" r="22.5" fill="#63ea86"></circle>
  <path fill="#3ce568" d="M437 232.5a22.454 22.454 0 0 0-7.5 1.285 22.502 22.502 0 0 1 0 42.43A22.5 22.5 0 1 0 437 232.5Z"></path>
  <rect width="69" height="45" x="279.5" y="142.5" fill="#63ea86" rx="10"></rect>
  <path fill="#3ce568" d="M338.5 142.5h-15a10 10 0 0 1 10 10v25a10 10 0 0 1-10 10h15a10 10 0 0 0 10-10v-25a10 10 0 0 0-10-10Z"></path>
  <rect width="69" height="45" x="52.5" y="142.5" fill="#f66" rx="10"></rect>
  <path fill="#ff4e4e" d="M111.5 142.5h-15a10 10 0 0 1 10 10v25a10 10 0 0 1-10 10h15a10 10 0 0 0 10-10v-25a10 10 0 0 0-10-10Z"></path>
  <path fill="#272a33" d="M289.5 195h49a17.52 17.52 0 0 0 17.5-17.5v-25a17.52 17.52 0 0 0-17.5-17.5h-49a17.52 17.52 0 0 0-17.5 17.5v25a17.52 17.52 0 0 0 17.5 17.5Zm-2.5-42.5a2.503 2.503 0 0 1 2.5-2.5h49a2.503 2.503 0 0 1 2.5 2.5v25a2.503 2.503 0 0 1-2.5 2.5h-49a2.503 2.503 0 0 1-2.5-2.5ZM75 467a29.982 29.982 0 0 0 23.216-48.976l86.644-118.142a29.922 29.922 0 0 0 25.485-1.513l103.716 111.136a29.999 29.999 0 1 0 46.268-5.33l68.764-120.24a30.072 30.072 0 1 0-13.013-7.462l-68.748 120.211a29.92 29.92 0 0 0-22.316 2.574l-103.72-111.14a29.998 29.998 0 1 0-48.525 2.884L86.124 409.148A29.997 29.997 0 1 0 75 467Zm362-227a15 15 0 1 1-15 15 15.017 15.017 0 0 1 15-15Zm-97.642 170.6a15 15 0 1 1-15 15 15.017 15.017 0 0 1 15-15ZM195.993 257.033a15 15 0 1 1-15 15 15.017 15.017 0 0 1 15-15ZM75 422a15 15 0 1 1-15 15 15.017 15.017 0 0 1 15-15Zm91.5-234.5h66a7.5 7.5 0 0 0 0-15h-66a7.5 7.5 0 0 0 0 15Zm227 0h66a7.5 7.5 0 0 0 0-15h-66a7.5 7.5 0 0 0 0 15Zm0-30h66a7.5 7.5 0 0 0 0-15h-66a7.5 7.5 0 0 0 0 15Zm-227 0h66a7.5 7.5 0 0 0 0-15h-66a7.5 7.5 0 0 0 0 15ZM84.627 46.927a7.5 7.5 0 1 0 7.5 7.5 7.5 7.5 0 0 0-7.5-7.5Zm-30 0a7.5 7.5 0 1 0 7.5 7.5 7.5 7.5 0 0 0-7.5-7.5ZM62.5 195h49a17.52 17.52 0 0 0 17.5-17.5v-25a17.52 17.52 0 0 0-17.5-17.5h-49A17.52 17.52 0 0 0 45 152.5v25A17.52 17.52 0 0 0 62.5 195ZM60 152.5a2.503 2.503 0 0 1 2.5-2.5h49a2.503 2.503 0 0 1 2.5 2.5v25a2.503 2.503 0 0 1-2.5 2.5h-49a2.503 2.503 0 0 1-2.5-2.5Zm54.627-105.573a7.5 7.5 0 1 0 7.5 7.5 7.5 7.5 0 0 0-7.5-7.5ZM474.5 0h-437A37.542 37.542 0 0 0 0 37.5v437A37.542 37.542 0 0 0 37.5 512h437a37.542 37.542 0 0 0 37.5-37.5v-437A37.542 37.542 0 0 0 474.5 0ZM497 474.5a22.526 22.526 0 0 1-22.5 22.5h-437A22.526 22.526 0 0 1 15 474.5V105h482ZM497 90H15V37.5A22.526 22.526 0 0 1 37.5 15h437A22.526 22.526 0 0 1 497 37.5Z"></path>
</svg>
