<svg width="128" height="128" viewBox="0 0 128 128" fill="none" xmlns="http://www.w3.org/2000/svg">
<rect width="128" height="128" rx="5" fill="#CD0E66"/>
<path d="M93.2603 44.6001C93.2603 29.1691 80.1599 16.6595 64 16.6595C47.8401 16.6595 34.7397 29.1691 34.7397 44.6001C34.7397 44.6001 34.0121 72.7051 64 101.34C93.9879 72.7051 93.2603 44.6001 93.2603 44.6001Z" fill="#F5A3C7"/>
<path d="M64.0002 103C63.5396 103 63.0971 102.825 62.7706 102.514C55.8289 95.8848 49.9453 88.7281 45.2832 81.2425C41.5455 75.2412 38.5804 69.0164 36.4698 62.7397C32.9209 52.1858 32.9907 45.1193 33.002 44.5821C33.0124 28.2688 46.9139 15 64.0002 15C81.0864 15 94.988 28.268 94.998 44.5817C95.0092 45.112 95.0815 52.1812 91.5309 62.7397C89.42 69.0164 86.4545 75.2412 82.7168 81.2425C78.0551 88.7281 72.1715 95.8848 65.2293 102.514C64.9033 102.825 64.4612 103 64.0002 103ZM64.0002 18.3191C48.8245 18.3191 36.4778 30.1089 36.4778 44.6005C36.4778 44.6139 36.4774 44.6273 36.477 44.6411C36.4754 44.7074 36.3594 51.6298 39.8337 61.8862C41.8732 67.9059 44.7335 73.8815 48.3342 79.6474C52.561 86.4148 57.8262 92.91 64.0002 98.9769C70.1745 92.91 75.4397 86.4148 79.6661 79.6474C83.2669 73.8815 86.1268 67.9059 88.1663 61.8862C91.641 51.6298 91.5241 44.7074 91.5229 44.6392C91.5225 44.6265 91.5229 44.6124 91.5229 44.6005C91.5229 30.1089 79.1762 18.3191 64.0002 18.3191Z" fill="black"/>
<path d="M79.3075 46.2988C79.3075 54.3715 72.4541 60.9157 64.0001 60.9157C55.5461 60.9157 48.6927 54.3715 48.6927 46.2988C48.6927 38.2261 55.5461 31.6818 64.0001 31.6818C72.4541 31.6818 79.3075 38.2261 79.3075 46.2988Z" fill="white"/>
<path d="M64.0003 62.575C54.6015 62.575 46.955 55.2738 46.955 46.2992C46.955 37.3247 54.6015 30.0227 64.0003 30.0227C73.3988 30.0227 81.0456 37.3247 81.0456 46.2992C81.0456 55.2738 73.3988 62.575 64.0003 62.575ZM64.0003 33.3415C56.5181 33.3415 50.4309 39.1541 50.4309 46.2992C50.4309 53.444 56.5181 59.2559 64.0003 59.2559C71.4825 59.2559 77.5697 53.444 77.5697 46.2992C77.5697 39.1541 71.4825 33.3415 64.0003 33.3415Z" fill="black"/>
</svg>
